<svg width="0" height="0">

  <symbol xmlns="http://www.w3.org/2000/svg" viewBox="0 0 100 100" id="created">
    <path
      d="M86.4 26.9L80 20.6c-.8-.7-2.1-.7-2.8 0L63.8 34H15c-1.1 0-2 .9-2 2v42c0 1.1.9 2 2 2h60c1.1 0 2-.9 2-2V39.2l9.4-9.4c.8-.8.8-2.1 0-2.9zM73.1 76H17V38h42.8L48.7 49.1c-.3.2-.4.6-.5.9l-1.8 6H28.9c-1.1 0-2 .9-2 2s.9 2 2 2h19c.1 0 3.9.1 6.6-.6 1.4-.3 2.4-.6 2.4-.6.4-.1.7-.3.9-.5L73 43.2V76zM55.4 55.1l-4.7 1.2 1.2-4.7 26.7-26.7 3.5 3.5-26.7 26.7z" />
    <path d="M1644-650v1684H-140V-650h1784m8-8H-148v1700h1800V-658z" fill="#010101" />
  </symbol>



  <symbol xmlns="http://www.w3.org/2000/svg"  viewBox="0 0 64 64" id="receipted">
    <path
      d="M37.8 4.3c0-.6-.5-1-1-1h-5.9C30.1 1.3 28.2 0 26 0c-3 0-5.3 2.4-5.3 5.3h16.2C37.4 5.3 37.8 4.9 37.8 4.3zM30.1 10.3v-3h-8.4v2.2c0 2.2 1.8 4 4 4h1.2C28.7 13.5 30.1 12.1 30.1 10.3zM46.9 21.3c.2 0 .5.1.7.2l1.3 1.1V19H45v3.6l1.3-1.1C46.4 21.4 46.6 21.3 46.9 21.3zM24.3 15.4L24.2 17h2.4l.2-1.4h-1.2C25.2 15.6 24.8 15.5 24.3 15.4zM42.5 56.1c0 0-.1 0-.2 0l0 0h-.1l-3 .3c-.2 0-.4 0-.6 0-.4-.1-.8-.2-1.1-.5-.5-.4-.8-1-.9-1.6l-.5-5.5c-.1-.6-.2-1.1-.4-1.7-.1-.2-.2-.4-.3-.6L31.2 40l-1.7-2.7h-5.7c-.6 0-1-.5-1-1 0-.6.5-1 1-1h5.3v-6h-1.2c-.4 0-.8-.3-.9-.6-.1-.1-.1-.3-.1-.4 0-.6.5-1 1-1h2.2c.1 0 .3 0 .4.1l.1.1c.1 0 .1.1.2.1l3 2.9c.5.5 1.2.8 1.9.8h6.8c.3 0 .5-.1.7-.3l0 0c.1 0 .1-.1.1-.2.1-.2.2-.4.2-.6 0-.3-.1-.5-.3-.7s-.4-.3-.7-.3h-5.3c-1.4 0-2.8-.6-3.8-1.5l-.1-.1c-.1-.1-.1-.1-.2-.2-.1-.1-.2-.2-.3-.3L32.7 27c-.1-.2-.2-.3-.3-.5l-.3-.6L29 20c0 0 0-.1-.1-.1-.1-.1-.2-.2-.3-.3-.1-.1-.1-.1-.2-.2-.1 0-.1-.1-.2-.1-.1-.1-.2-.1-.3-.1-.1 0-.1-.1-.2-.1S27.5 19 27.4 19c-.1 0-.2 0-.3 0H27h-2.8c-.3 0-.5.1-.8.1-.2.1-.4.2-.5.3 0 0 0 0-.1.1-.2.1-.3.2-.4.4l0 0c-.1.1-.2.3-.3.4 0 .1-.1.1-.1.2-.1.1-.1.3-.1.4V21l-2 18.2L19 47.7c0 .4-.1.7-.2 1.1-.4 1.5-1.1 2.9-2.2 4.1l-2.5 2.5c-.1.1-.2.3-.2.5s.1.5.2.7l5.2 5.2c.2.2.6.3.9.2.1 0 .2-.1.3-.2.1-.1.1-.2.2-.3.1-.2.1-.4 0-.6 0-.1-.1-.2-.1-.3l-1-1.4L19.4 59l0 0c-.7-1-.7-2.2-.1-3.3 0 0 0-.1.1-.1l1.9-2.7c.1-.1.1-.2.2-.3s.1-.2.2-.3c.1-.2.2-.3.2-.5 0-.1.1-.1.1-.2.2-.4.3-.9.4-1.4l1.6-8.9c0-.2.2-.4.4-.6.1-.1.3-.2.4-.2s.1 0 .2 0h.1c.1 0 .3.1.4.1.1.1.3.2.4.3l.7 1 5.7 8.4c.6.9 1 1.9 1.1 3 0 .1 0 .2 0 .3l.6 5.6c0 .1 0 .1.1.1 0 0 0 0 0 .1l.1.1c.1 0 .2.1.3 0l2.4-.9 5.6-2.1c.1 0 .1-.1.2-.1 0-.1.1-.1.1-.2 0-.2-.1-.2-.1-.3C42.6 56.1 42.6 56.1 42.5 56.1z" />
    <path
      d="M55.2 19h-4.3v5.8c0 .4-.2.8-.6.9-.1.1-.3.1-.4.1-.2 0-.5-.1-.7-.2l-2.3-1.9-2.3 1.9c-.3.3-.7.3-1.1.1-.4-.2-.6-.5-.6-.9V19h-4.3c-1.1 0-2 .9-2 2v6c.2.1.5.1.7.1h5.3c.8 0 1.6.3 2.2.9s.9 1.3.9 2.2c0 .8-.3 1.6-.9 2.2-.1.1-.3.2-.4.3 0 0 0 0-.1.1S44.1 32.9 44 33c-.1 0-.1.1-.2.1-.1 0-.1 0-.2.1-.3.1-.6.2-1 .2h-5.8V35c.3.8 1 1.2 1.9 1.2h16.6c1.1 0 2-.9 2-2V21C57.2 19.9 56.3 19 55.2 19zM59.9 62H4.1c-.6 0-1 .5-1 1s.5 1 1 1H60c.6 0 1-.5 1-1S60.5 62 59.9 62z" />
  </symbol>

  <symbol id="truck" class="svg-icon" viewBox="0 0 1024 1024" version="1.1" xmlns="http://www.w3.org/2000/svg">
    <path d="M489.852072 564.114938c-31.339776 0-56.806797 25.416879-56.806797 56.773028 0 31.406291 25.467021 56.839543 56.806797 56.839543 31.388894 0 56.805774-25.433252 56.805774-56.839543C546.657846 589.531817 521.240967 564.114938 489.852072 564.114938z"  /><path d="M785.406438 564.114938c-31.372521 0-56.839543 25.416879-56.839543 56.773028 0 31.406291 25.467021 56.839543 56.839543 56.839543 31.357172 0 56.772005-25.433252 56.772005-56.839543C842.178443 589.531817 816.762587 564.114938 785.406438 564.114938z"  /><path d="M468.716706 550.797631l-110.363573 0 0 62.828954 58.668191 0C420.015517 583.693856 440.727235 559.241954 468.716706 550.797631z"  /><path d="M971.393363 550.797631c-1.437745-12.521175-3.722788-27.971052-17.978467-47.076178-11.871375-15.906272-97.478102-128.266315-106.031918-140.365888-22.852474-32.320103-64.784492-26.904767-64.784492-26.904767-21.389146 0-38.684044 17.327644-38.684044 38.734186l0 136.947022 0 38.665625L510.987439 550.797631c27.988448 8.444323 48.700165 32.895201 51.696406 62.828954l149.892869 0c3.689019-37.124526 34.655288-66.280566 72.830749-66.280566 38.107923 0 69.108984 29.15604 72.798003 66.280566l70.479191 0c0 0 17.902742 0.407276 31.135114-12.825097C973.051119 587.569116 972.847481 563.53984 971.393363 550.797631z"  /><path d="M730.613508 375.184985c0-21.406542-17.327644-38.734186-38.681998-38.734186L397.019781 336.450798c-21.337981 0-38.666648 17.327644-38.666648 38.734186l0 160.602791L730.613508 535.787776 730.613508 375.184985zM631.046838 368.788298c0-1.133823 0.913812-1.980097 1.99647-1.980097l14.129812 0c1.100054 0 1.997494 0.845251 1.997494 1.980097l0 14.146185c0 1.066285-0.89744 1.980097-1.997494 1.980097l-14.129812 0c-1.083681 0-1.99647-0.913812-1.99647-1.980097L631.046838 368.788298zM640.099005 479.43942c-35.078936 0-63.74379-27.193339-66.24782-61.561078-0.033769-1.827625 1.403976-3.164063 3.130294-3.164063 0 0 9.054213 0 11.828396 0 3.046383-0.067538 3.25002 2.808976 3.25002 2.808976 2.284019 24.586978 22.878057 43.810808 48.040133 43.810808 25.111934 0 45.705971-19.22383 47.989991-43.810808 0 0 0.220011-2.876514 3.248997-2.808976 2.792603 0 11.828396 0 11.828396 0 1.726318 0 3.146667 1.336438 3.146667 3.164063C703.842795 452.246081 675.145196 479.43942 640.099005 479.43942z"  /><path d="M241.822093 445.968098c0.101307 0 0.160659-0.093121 0.25378-0.101307l0 0.101307 89.11769 0 0-15.026228-89.11769 0c-20.255323-1.895163-36.111452-18.885116-36.111452-39.630602s15.85613-37.735439 36.111452-39.630602c0 0 2.38635-0.152473 2.368954-2.673899 0-2.284019 0-9.746992 0-9.746992 0-1.438769-1.151219-2.605338-2.622734-2.588965-28.3947 2.047636-50.798966 25.720801-50.816363 54.640458C191.023126 420.2299 213.427392 443.903066 241.822093 445.968098z"  /><path d="M15.925203 481.977219l315.589678 0 0 15.009855-315.589678 0 0-15.009855Z"  /><path d="M119.164518 533.825075l212.350362 0 0 15.027252-212.350362 0 0-15.027252Z"  />
    <path d="M201.472106 585.690326l130.043798 0 0 15.027252-130.043798 0 0-15.027252Z"  />
  </symbol>



  <symbol xmlns="http://www.w3.org/2000/svg" enable-background="new 0 0 1024 1024" viewBox="0 0 1024 1024"
    id="delivered">
    <path d="M922.5,92.3c0,6.5,0,12.9,0,19.4c0,17.6,0,35.2,0,52.8c0,26,0,52,0,78c0,31.7,0,63.4,0,95.1
				c0,34.7,0,69.4,0,104.1c0,35,0,70,0,105c0,32.6,0,65.1,0,97.7c0,27.4,0,54.8,0,82.2c0,19.6,0,39.1,0,58.7c0,9,0,18,0,27
				c0,2.1-0.1,4.3-0.3,6.4c0.4-2.7,0.7-5.3,1.1-8c-0.6,4-1.6,7.8-3.2,11.6c1-2.4,2-4.8,3-7.2c-1.1,2.4-2.4,4.6-3.8,6.9
				c-2.4,3.9,4.4-4.8,2-2.4c-0.9,0.9-1.7,2-2.6,2.9c-0.8,0.8-1.6,1.5-2.4,2.2c-3.6,3.5,6.3-4,1.9-1.5c-2.3,1.3-4.5,2.7-6.9,3.8
				c2.4-1,4.8-2,7.2-3c-3.7,1.6-7.6,2.6-11.6,3.2c2.7-0.4,5.3-0.7,8-1.1c-7.5,0.8-15.2,0.3-22.6,0.3c-15,0-30,0-45,0
				c-34.8,0-69.6,0-104.5,0c-8.1,0-16.2,0-24.2,0c8.6,15,17.3,30.1,25.9,45.1c40.1-69,48.5-156.3,19.2-231
				c-25-63.8-72.7-118.1-135.2-147.4c-64.1-30-139-35.5-206-11.2c-64.2,23.3-119.3,70.1-150.1,131.4c-16.4,32.7-26,67.6-28.7,104.2
				c-3.3,43.8,5.4,87.4,22.7,127.5c3.9,9.1,8.4,17.9,13.3,26.4c8.6-15,17.3-30.1,25.9-45.1c-22,0-44,0-65.9,0
				c-34.5,0-68.9,0-103.4,0c-8.9,0-18.2,0.6-27.1-0.3c2.7,0.4,5.3,0.7,8,1.1c-4-0.6-7.8-1.6-11.6-3.2c2.4,1,4.8,2,7.2,3
				c-2.4-1.1-4.6-2.4-6.9-3.8c-3.9-2.4,4.8,4.4,2.4,2c-0.9-0.9-2-1.7-2.9-2.6c-0.8-0.8-1.5-1.6-2.2-2.4c-3.5-3.6,4,6.3,1.5,1.9
				c-1.3-2.3-2.7-4.5-3.8-6.9c1,2.4,2,4.8,3,7.2c-1.6-3.8-2.6-7.6-3.2-11.6c0.4,2.7,0.7,5.3,1.1,8c-0.9-7.8-0.3-15.9-0.3-23.7
				c0-17.4,0-34.7,0-52.1c0-25.8,0-51.6,0-77.4c0-31.7,0-63.5,0-95.2c0-34.8,0-69.7,0-104.5c0-35.2,0-70.3,0-105.5
				c0-32.8,0-65.5,0-98.3c0-27.5,0-54.9,0-82.4c0-19.7,0-39.4,0-59.2c0-9.1,0-18.1,0-27.2c0-2.1,0.1-4.3,0.3-6.4
				c-0.4,2.7-0.7,5.3-1.1,8c0.6-4,1.6-7.8,3.2-11.6c-1,2.4-2,4.8-3,7.2c1.1-2.4,2.4-4.6,3.8-6.9c2.4-3.9-4.4,4.8-2,2.4
				c0.9-0.9,1.7-2,2.6-2.9c0.8-0.8,1.6-1.5,2.4-2.2c3.6-3.5-6.3,4-1.9,1.5c2.3-1.3,4.5-2.7,6.9-3.8c-2.4,1-4.8,2-7.2,3
				c3.7-1.6,7.6-2.6,11.6-3.2c-2.7,0.4-5.3,0.7-8,1.1c8.4-0.9,17.1-0.3,25.6-0.3c19.2,0,38.4,0,57.6,0c28.5,0,57,0,85.6,0
				c34.9,0,69.8,0,104.7,0c38.5,0,76.9,0,115.4,0c38.7,0,77.3,0,116,0c36,0,72,0,108,0c30.4,0,60.7,0,91.1,0c21.7,0,43.4,0,65.1,0
				c10,0,20.1,0,30.1,0c2.2,0,4.3,0.1,6.5,0.3c-2.7-0.4-5.3-0.7-8-1.1c4,0.6,7.8,1.6,11.6,3.2c-2.4-1-4.8-2-7.2-3
				c2.4,1.1,4.6,2.4,6.9,3.8c3.9,2.4-4.8-4.4-2.4-2c0.9,0.9,2,1.7,2.9,2.6c0.8,0.8,1.5,1.6,2.2,2.4c3.5,3.6-4-6.3-1.5-1.9
				c1.3,2.3,2.7,4.5,3.8,6.9c-1-2.4-2-4.8-3-7.2c1.6,3.7,2.6,7.6,3.2,11.6c-0.4-2.7-0.7-5.3-1.1-8C922.3,88.7,922.4,90.5,922.5,92.3
				c0.2,15.7,13.6,30.7,30,30c16-0.7,30.3-13.2,30-30c-0.6-40.2-33-72.7-73.3-73.2c-3.1,0-6.2,0-9.2,0c-18.6,0-37.3,0-55.9,0
				c-31.4,0-62.8,0-94.2,0c-40,0-79.9,0-119.9,0c-44,0-87.9,0-131.9,0c-43.5,0-87,0-130.5,0c-38.6,0-77.1,0-115.7,0
				c-29.1,0-58.2,0-87.2,0c-15.4,0-30.7,0-46.1,0c-13.9,0-27.3,2.6-39.6,9.3C55.2,41.4,41.6,67.2,41.5,93.8c0,13.9,0,27.8,0,41.7
				c0,29.3,0,58.7,0,88c0,39.3,0,78.7,0,118c0,43.8,0,87.5,0,131.3c0,43.1,0,86.2,0,129.3c0,36.9,0,73.7,0,110.6
				c0,25.2,0,50.5,0,75.7c0,15.8-1.6,33.7,4.1,48.7c8.4,22.1,25,38.8,47.7,46.1c7.9,2.6,16.4,3.2,24.7,3.2c13.4,0,26.9,0,40.3,0
				c40.9,0,81.7,0,122.6,0c8.2,0,16.4,0,24.6,0c22.8,0,37.3-25.5,25.9-45.1c-5.1-8.8-9.7-17.9-13.7-27.2c1,2.4,2,4.8,3,7.2
				c-8.3-19.7-13.9-40.3-16.8-61.4c0.4,2.7,0.7,5.3,1.1,8c-2.8-21.2-2.8-42.7,0-63.9c-0.4,2.7-0.7,5.3-1.1,8
				c2.9-20.9,8.4-41.4,16.6-60.9c-1,2.4-2,4.8-3,7.2c4.6-10.9,10-21.5,16.2-31.7c3.1-5,6.3-10,9.8-14.8c0.9-1.2,1.8-2.5,2.7-3.7
				c0.4-0.5,0.8-1,1.2-1.6c1.7-2.4-2.8,4-2.7,3.5c0.5-2.2,4.3-5.3,5.8-7.1c7.6-9,15.8-17.4,24.7-25.2c2.1-1.9,4.3-3.7,6.5-5.5
				c1.2-1,2.4-1.9,3.6-2.9c3.4-2.8-6.2,4.6-1.4,1.1c4.7-3.5,9.6-6.9,14.5-10.1c11.5-7.4,23.6-13.7,36.1-19c-2.4,1-4.8,2-7.2,3
				c19.5-8.2,39.9-13.7,60.9-16.6c-2.7,0.4-5.3,0.7-8,1.1c21.2-2.8,42.6-2.8,63.8,0c-2.7-0.4-5.3-0.7-8-1.1
				c20.9,2.9,41.4,8.4,60.9,16.6c-2.4-1-4.8-2-7.2-3c10.9,4.6,21.5,10,31.7,16.2c5,3.1,10,6.3,14.8,9.8c1.2,0.9,2.5,1.8,3.7,2.7
				c0.5,0.4,1,0.8,1.6,1.2c2.4,1.7-4-2.8-3.5-2.7c2.2,0.5,5.3,4.3,7.1,5.8c9,7.6,17.4,15.8,25.2,24.7c1.9,2.1,3.7,4.3,5.5,6.5
				c1,1.2,1.9,2.4,2.9,3.6c2.8,3.4-4.6-6.2-1.1-1.4c3.5,4.7,6.9,9.6,10.1,14.5c7.4,11.5,13.7,23.6,19,36.1c-1-2.4-2-4.8-3-7.2
				c8.2,19.5,13.7,39.9,16.6,60.9c-0.4-2.7-0.7-5.3-1.1-8c2.8,21.2,2.7,42.6,0,63.9c0.4-2.7,0.7-5.3,1.1-8
				c-2.9,21.2-8.5,41.7-16.8,61.4c1-2.4,2-4.8,3-7.2c-4,9.3-8.6,18.4-13.7,27.2c-11.4,19.7,3.1,45.1,25.9,45.1c30.5,0,60.9,0,91.4,0
				c33,0,65.9,0.3,98.9,0c40.4-0.4,73.2-32.7,73.7-73.2c0-3.2,0-6.4,0-9.6c0-21.1,0-42.1,0-63.2c0-35.5,0-71,0-106.4
				c0-43.8,0-87.6,0-131.4c0-46.1,0-92.3,0-138.4c0-42.2,0-84.4,0-126.6c0-32,0-63.9,0-95.9c0-15.8,0-31.5,0-47.3c0-0.7,0-1.4,0-2.1
				c0-15.7-13.8-30.7-30-30C936.2,63.1,922.5,75.5,922.5,92.3z" />
    <path
      d="M593.1 49.1c0 30.8 0 61.6 0 92.4 0 48.7 0 97.4 0 146.1 0 11.2 0 22.5 0 33.7 15-8.6 30.1-17.3 45.1-25.9-32.8-17.2-65.5-34.3-98.3-51.5-4.2-2.2-8.5-4.6-12.8-6.7-10.9-5.3-21.1-4.8-31.6.6-2.2 1.2-4.5 2.3-6.7 3.5-18.9 9.9-37.9 19.8-56.8 29.8-15.4 8.1-30.9 16.2-46.3 24.3 15 8.6 30.1 17.3 45.1 25.9 0-30.8 0-61.6 0-92.4 0-48.7 0-97.4 0-146.1 0-11.2 0-22.5 0-33.7-10 10-20 20-30 30 25.1 0 50.2 0 75.3 0 39.8 0 79.6 0 119.4 0 9.2 0 18.4 0 27.5 0 15.7 0 30.7-13.8 30-30-.7-16.3-13.2-30-30-30-25.1 0-50.2 0-75.3 0-39.8 0-79.6 0-119.4 0-9.2 0-18.4 0-27.5 0-16.2 0-30 13.7-30 30 0 30.8 0 61.6 0 92.4 0 48.7 0 97.4 0 146.1 0 11.2 0 22.5 0 33.7 0 23.5 25.3 36.3 45.1 25.9 32.4-17 64.7-33.9 97.1-50.9 4.7-2.4 9.3-4.9 14-7.3-10.1 0-20.2 0-30.3 0 32.4 17 64.7 33.9 97.1 50.9 4.7 2.4 9.3 4.9 14 7.3 19.9 10.4 45.1-2.4 45.1-25.9 0-30.8 0-61.6 0-92.4 0-48.7 0-97.4 0-146.1 0-11.2 0-22.5 0-33.7 0-15.7-13.8-30.7-30-30C606.8 19.9 593.1 32.3 593.1 49.1zM721.1 735.8c0 10.7-.7 21.4-2.1 32 .4-2.7.7-5.3 1.1-8-2.9 21.2-8.5 41.7-16.8 61.4 1-2.4 2-4.8 3-7.2-6.5 15.1-14.4 29.5-23.8 43-1.9 2.8-4 5.4-5.9 8.2 5.8-8.2 1.7-2.2.2-.4-1.2 1.5-2.4 3-3.7 4.4-4.7 5.5-9.6 10.8-14.7 15.8-5.1 5-10.5 9.9-16.1 14.4-1.5 1.2-3 2.4-4.5 3.6 7.8-6.4 2.2-1.7.3-.3-2.7 2-5.5 3.9-8.3 5.8-12.5 8.4-25.7 15.5-39.5 21.4 2.4-1 4.8-2 7.2-3-19.6 8.3-40.2 13.9-61.3 16.8 2.7-.4 5.3-.7 8-1.1-21.3 2.8-42.8 2.8-64.1 0 2.7.4 5.3.7 8 1.1-21.1-2.9-41.7-8.5-61.3-16.8 2.4 1 4.8 2 7.2 3-13.8-5.9-27.1-13-39.5-21.4-2.8-1.9-5.6-3.8-8.3-5.8-1.8-1.4-7.5-6.1.3.3-1.5-1.2-3-2.4-4.5-3.6-5.6-4.6-10.9-9.4-16.1-14.4-5.1-5-10-10.3-14.7-15.8-1.2-1.5-2.5-2.9-3.7-4.4-1.5-1.8-5.6-7.8.2.4-1.9-2.7-4-5.4-5.9-8.2-9.4-13.5-17.3-27.9-23.8-43 1 2.4 2 4.8 3 7.2-8.3-19.7-13.9-40.3-16.8-61.4.4 2.7.7 5.3 1.1 8-2.8-21.2-2.8-42.7 0-63.9-.4 2.7-.7 5.3-1.1 8 2.9-20.9 8.4-41.4 16.6-60.9-1 2.4-2 4.8-3 7.2 4.6-10.9 10-21.5 16.2-31.7 3.1-5 6.3-10 9.8-14.8.9-1.2 1.8-2.5 2.7-3.7.4-.5.8-1 1.2-1.6 1.7-2.4-2.8 4-2.7 3.5.5-2.2 4.3-5.3 5.8-7.1 7.6-9 15.8-17.4 24.7-25.2 2.1-1.9 4.3-3.7 6.5-5.5 1.2-1 2.4-1.9 3.6-2.9 3.4-2.8-6.2 4.6-1.4 1.1 4.7-3.5 9.6-6.9 14.5-10.1 11.5-7.4 23.6-13.7 36.1-19-2.4 1-4.8 2-7.2 3 19.5-8.2 39.9-13.7 60.9-16.6-2.7.4-5.3.7-8 1.1 21.2-2.8 42.6-2.8 63.8 0-2.7-.4-5.3-.7-8-1.1 20.9 2.9 41.4 8.4 60.9 16.6-2.4-1-4.8-2-7.2-3 10.9 4.6 21.5 10 31.7 16.2 5 3.1 10 6.3 14.8 9.8 1.2.9 2.5 1.8 3.7 2.7.5.4 1 .8 1.6 1.2 2.4 1.7-4-2.8-3.5-2.7 2.2.5 5.3 4.3 7.1 5.8 9 7.6 17.4 15.8 25.2 24.7 1.9 2.1 3.7 4.3 5.5 6.5 1 1.2 1.9 2.4 2.9 3.6 2.8 3.4-4.6-6.2-1.1-1.4 3.5 4.7 6.9 9.6 10.1 14.5 7.4 11.5 13.7 23.6 19 36.1-1-2.4-2-4.8-3-7.2 8.2 19.5 13.7 39.9 16.6 60.9-.4-2.7-.7-5.3-1.1-8C720.4 714.5 721.1 725.1 721.1 735.8c0 15.7 13.8 30.7 30 30 16.2-.7 30-13.2 30-30-.1-51.2-14.8-102.7-42.8-145.7-27.3-41.8-66.1-76.9-111.7-97.7-23.2-10.6-47.3-18.6-72.7-22.2-29-4.1-56.9-4.1-85.8.3-50.1 7.5-97 31.1-134.9 64.3-37.6 33-65.4 77.4-79.5 125.4-16.6 56.3-14.3 119.5 7.9 173.9 11.8 29 27.4 55 47.8 78.8 17.7 20.6 39.2 38.4 62.4 52.7 47.8 29.4 105.8 43.4 161.7 38.4 58.3-5.2 112.5-28.1 156.7-66.6 44-38.3 75.4-92.9 85.9-150.3 3.1-16.9 4.9-34 5-51.2.1-15.7-13.8-30.7-30-30C734.8 706.5 721.1 718.9 721.1 735.8z" />
    <path d="M368.3,769.8c22.3,22.3,44.6,44.6,66.9,66.9c3.2,3.2,6.4,6.4,9.5,9.5c11.5,11.5,30.9,11.5,42.4,0
				c17.9-17.9,35.7-35.7,53.6-53.6c28.5-28.5,56.9-56.9,85.4-85.4c6.5-6.5,13-13,19.6-19.6c11.1-11.1,11.9-31.5,0-42.4
				c-12-11-30.6-11.9-42.4,0c-17.9,17.9-35.7,35.7-53.6,53.6c-28.5,28.5-56.9,56.9-85.4,85.4c-6.5,6.5-13,13-19.6,19.6
				c14.1,0,28.3,0,42.4,0c-22.3-22.3-44.6-44.6-66.9-66.9c-3.2-3.2-6.4-6.4-9.5-9.5c-11.1-11.1-31.5-11.9-42.4,0
				C357.3,739.4,356.5,757.9,368.3,769.8L368.3,769.8z" />
  </symbol>

  <symbol xmlns="http://www.w3.org/2000/svg" viewBox="0 0 32 32" id="error">
    <g data-name="26 - error">
      <polygon points="16 24 16.5 24 16 23.999 16 24" />
      <path
        d="M29.658,25.354,18.871,3.774a3.21,3.21,0,0,0-5.742,0L2.342,25.354A3.209,3.209,0,0,0,5.212,30H26.788a3.209,3.209,0,0,0,2.87-4.646ZM16,25a1,1,0,1,1,1-1A1,1,0,0,1,16,25Zm1-5a1,1,0,0,1-2,0V12a1,1,0,0,1,2,0Z" />
    </g>
  </symbol>

  <symbol xmlns="http://www.w3.org/2000/svg" viewBox="0 0 24 24" id="search">
    <g data-name="Layer 2">
      <g data-name="search">
        <rect width="24" height="24" opacity="0" />
        <path
          d="M20.71 19.29l-3.4-3.39A7.92 7.92 0 0 0 19 11a8 8 0 1 0-8 8 7.92 7.92 0 0 0 4.9-1.69l3.39 3.4a1 1 0 0 0 1.42 0 1 1 0 0 0 0-1.42zM5 11a6 6 0 1 1 6 6 6 6 0 0 1-6-6z" />
      </g>
    </g>
  </symbol>

  <symbol class="svg-icon" id="empty-state"
    style="width: 1em; height: 1em;vertical-align: middle;fill: currentColor;overflow: hidden;" viewBox="0 0 1024 1024"
    version="1.1" xmlns="http://www.w3.org/2000/svg">
    <path
      d="M831.7 369.4H193.6L64 602v290.3h897.2V602L831.7 369.4zM626.6 604.6c0 62.9-51 113.9-114 113.9s-114-51-114-113.9H117.5l103.8-198h582.5l103.8 198h-281zM502.2 131h39.1v140.6h-39.1zM236.855 200.802l27.647-27.647 99.419 99.418-27.648 27.648zM667.547 272.637l99.418-99.419 27.648 27.648-99.418 99.418z" />
  </symbol>

  <symbol id="check" xmlns="http://www.w3.org/2000/svg" enable-background="new 0 0 512 512" viewBox="0 0 512 512">
  <path  d="M193.6,435.3c-10.3,0-20.6-3.9-28.5-11.8L11.8,270.2c-15.7-15.7-15.7-41.2,0-56.9c15.7-15.7,41.2-15.7,56.9,0
		l124.9,124.9L443.3,88.4c15.7-15.7,41.2-15.7,56.9,0c15.7,15.7,15.7,41.2,0,56.9L222,423.5C214.2,431.3,203.9,435.3,193.6,435.3z"/></symbol>
</svg>